<svg xmlns="http://www.w3.org/2000/svg" width="920" height="370" viewBox="0 0 920 370">
<rect width="100%" height="100%" fill="#f7faf9"/>
<text x="24" y="34" font-family="Arial" font-size="22" font-weight="700" fill="#17384f">Selected Tumor Driver Mutation Frequency</text>
<text x="24" y="78" font-family="Arial" font-size="13" fill="#17201d">LUAD KRAS</text>
<rect x="180" y="65" width="193" height="17" fill="#2f7d5c"/>
<text x="381" y="78" font-family="Arial" font-size="13" fill="#17201d">0.297</text>
<text x="24" y="106" font-family="Arial" font-size="13" fill="#17201d">LUAD EGFR</text>
<rect x="180" y="93" width="80" height="17" fill="#2f7d5c"/>
<text x="268" y="106" font-family="Arial" font-size="13" fill="#17201d">0.124</text>
<text x="24" y="134" font-family="Arial" font-size="13" fill="#17201d">LUAD ALK</text>
<rect x="180" y="121" width="39" height="17" fill="#2f7d5c"/>
<text x="227" y="134" font-family="Arial" font-size="13" fill="#17201d">0.060</text>
<text x="24" y="162" font-family="Arial" font-size="13" fill="#17201d">LUAD MET</text>
<rect x="180" y="149" width="24" height="17" fill="#2f7d5c"/>
<text x="212" y="162" font-family="Arial" font-size="13" fill="#17201d">0.037</text>
<text x="24" y="190" font-family="Arial" font-size="13" fill="#17201d">LUAD MYC</text>
<rect x="180" y="177" width="4" height="17" fill="#2f7d5c"/>
<text x="192" y="190" font-family="Arial" font-size="13" fill="#17201d">0.007</text>
<text x="24" y="218" font-family="Arial" font-size="13" fill="#17201d">LUSC ALK</text>
<rect x="180" y="205" width="24" height="17" fill="#2f7d5c"/>
<text x="212" y="218" font-family="Arial" font-size="13" fill="#17201d">0.037</text>
<text x="24" y="246" font-family="Arial" font-size="13" fill="#17201d">LUSC EGFR</text>
<rect x="180" y="233" width="18" height="17" fill="#2f7d5c"/>
<text x="206" y="246" font-family="Arial" font-size="13" fill="#17201d">0.029</text>
<text x="24" y="274" font-family="Arial" font-size="13" fill="#17201d">LUSC MET</text>
<rect x="180" y="261" width="10" height="17" fill="#2f7d5c"/>
<text x="198" y="274" font-family="Arial" font-size="13" fill="#17201d">0.016</text>
<text x="24" y="302" font-family="Arial" font-size="13" fill="#17201d">LUSC KRAS</text>
<rect x="180" y="289" width="9" height="17" fill="#2f7d5c"/>
<text x="197" y="302" font-family="Arial" font-size="13" fill="#17201d">0.014</text>
<text x="24" y="330" font-family="Arial" font-size="13" fill="#17201d">LUSC MYC</text>
<rect x="180" y="317" width="5" height="17" fill="#2f7d5c"/>
<text x="193" y="330" font-family="Arial" font-size="13" fill="#17201d">0.008</text>
</svg>